<?xml version="1.0" encoding="UTF-8" standalone="no"?>
<!-- Created with Inkscape (http://www.inkscape.org/) -->

<svg
   xmlns:dc="http://purl.org/dc/elements/1.1/"
   xmlns:cc="http://creativecommons.org/ns#"
   xmlns:rdf="http://www.w3.org/1999/02/22-rdf-syntax-ns#"
   xmlns:svg="http://www.w3.org/2000/svg"
   xmlns="http://www.w3.org/2000/svg"
   xmlns:sodipodi="http://sodipodi.sourceforge.net/DTD/sodipodi-0.dtd"
   xmlns:inkscape="http://www.inkscape.org/namespaces/inkscape"
   width="84.957901mm"
   height="79.463974mm"
   viewBox="0 0 301.03194 281.56526"
   id="svg2"
   version="1.1"
   inkscape:version="0.91 r13725"
   sodipodi:docname="logo_compact.svg"
   inkscape:export-filename="C:\Users\saula\Desktop\logo_compact.png"
   inkscape:export-xdpi="245.39"
   inkscape:export-ydpi="245.39">
  <defs
     id="defs4" />
  <sodipodi:namedview
     id="base"
     pagecolor="#ffffff"
     bordercolor="#666666"
     borderopacity="1.0"
     inkscape:pageopacity="0.0"
     inkscape:pageshadow="2"
     inkscape:zoom="0.7"
     inkscape:cx="274.09547"
     inkscape:cy="163.32528"
     inkscape:document-units="px"
     inkscape:current-layer="layer1"
     showgrid="false"
     fit-margin-top="0"
     fit-margin-left="0"
     fit-margin-right="0"
     fit-margin-bottom="0"
     inkscape:window-width="1366"
     inkscape:window-height="705"
     inkscape:window-x="-8"
     inkscape:window-y="-8"
     inkscape:window-maximized="1" />
  <metadata
     id="metadata7">
    <rdf:RDF>
      <cc:Work
         rdf:about="">
        <dc:format>image/svg+xml</dc:format>
        <dc:type
           rdf:resource="http://purl.org/dc/dcmitype/StillImage" />
        <dc:title></dc:title>
      </cc:Work>
    </rdf:RDF>
  </metadata>
  <g
     inkscape:label="Layer 1"
     inkscape:groupmode="layer"
     id="layer1"
     transform="translate(19.423601,-385.39845)">
    <g
       style="font-style:normal;font-weight:normal;font-size:40px;line-height:125%;font-family:sans-serif;letter-spacing:0px;word-spacing:0px;fill:#164450;fill-opacity:1;stroke:none;stroke-width:1px;stroke-linecap:butt;stroke-linejoin:miter;stroke-opacity:1"
       id="text4135"
       transform="matrix(9.3429314,0,0,9.3429314,350.53348,-3876.6303)">
      <path
         d="M -15.476444,483.67682 Q -16.550663,484.14557 -17.429569,484.55573 -18.288944,484.96588 -19.695194,485.4151 -20.8866,485.78619 -22.29285,486.0401 -23.679569,486.31354 -25.359257,486.31354 -28.523319,486.31354 -31.120975,485.43463 -33.6991,484.53619 -35.613163,482.64166 -37.488163,480.78619 -38.54285,477.93463 -39.597538,475.06354 -39.597538,471.27448 -39.597538,467.68073 -38.581913,464.84869 -37.566288,462.01666 -35.652225,460.06354 -33.796757,458.16901 -31.179569,457.17291 -28.54285,456.17682 -25.339725,456.17682 -22.995975,456.17682 -20.671757,456.74323 -18.328007,457.30963 -15.476444,458.73541 L -15.476444,463.32526 -15.769413,463.32526 Q -18.171757,461.31354 -20.535038,460.39557 -22.898319,459.4776 -25.593632,459.4776 -27.800663,459.4776 -29.578007,460.20026 -31.335819,460.90338 -32.722538,462.40729 -34.070194,463.87213 -34.831913,466.11823 -35.5741,468.34479 -35.5741,471.27448 -35.5741,474.34088 -34.753788,476.54791 -33.913944,478.75494 -32.60535,480.14166 -31.238163,481.58698 -29.421757,482.2901 -27.585819,482.97369 -25.554569,482.97369 -22.7616,482.97369 -20.320194,482.01666 -17.878788,481.05963 -15.749882,479.14557 L -15.476444,479.14557 -15.476444,483.67682 Z"
         id="path4140"
         inkscape:connector-curvature="0"
         style="fill:#164450;fill-opacity:1" />
    </g>
    <path
       style="font-style:normal;font-weight:normal;font-size:medium;line-height:125%;font-family:sans-serif;letter-spacing:0px;word-spacing:0px;fill:#2c5aa0;fill-opacity:1;stroke:none;stroke-width:1px;stroke-linecap:butt;stroke-linejoin:miter;stroke-opacity:1"
       inkscape:connector-curvature="0"
       id="path4147"
       d="M 195.98232,589.65119 186.20768,589.65119 Q 174.54323,589.65119 167.24482,583.13476 160.01156,576.68346 160.01156,564.43257 L 160.01156,554.72306 Q 160.01156,543.71028 154.60293,537.51965 149.19429,531.26387 138.05116,531.26387 L 134.72779,531.26387 134.72779,521.09824 138.05116,521.09824 Q 149.19429,521.09824 154.60293,514.90762 160.01156,508.65183 160.01156,497.63905 L 160.01156,487.92954 Q 160.01156,475.67865 167.24482,469.22735 174.54323,462.71092 186.20768,462.71092 L 195.98232,462.71092 195.98232,471.7036 188.55358,471.7036 Q 179.69122,471.7036 175.65102,475.80897 171.67601,479.91433 171.67601,489.03733 L 171.67601,500.44111 Q 171.67601,509.49895 166.65834,515.68957 161.64067,521.81503 152.71315,525.39908 L 152.71315,526.96303 Q 161.64067,530.54707 166.65834,536.7377 171.67601,542.86313 171.67601,551.921 L 171.67601,563.32478 Q 171.67601,572.44778 175.65102,576.55314 179.69122,580.6585 188.55358,580.6585 L 195.98232,580.6585 195.98232,589.65119 Z" />
    <path
       style="font-style:normal;font-weight:normal;font-size:medium;line-height:125%;font-family:sans-serif;letter-spacing:0px;word-spacing:0px;fill:#0b1728;fill-opacity:1;stroke:none;stroke-width:1px;stroke-linecap:butt;stroke-linejoin:miter;stroke-opacity:1"
       inkscape:connector-curvature="0"
       id="path4149"
       d="M 281.60837,531.2639 278.28498,531.2639 Q 267.14187,531.2639 261.73321,537.51968 256.32457,543.71031 256.32457,554.72309 L 256.32457,564.4326 Q 256.32457,576.68349 249.02616,583.13479 241.79291,589.65122 230.12849,589.65122 L 220.35382,589.65122 220.35382,580.65853 227.78255,580.65853 Q 236.64491,580.65853 240.61995,576.55317 244.66016,572.44781 244.66016,563.32481 L 244.66016,551.92103 Q 244.66016,542.86316 249.6778,536.73773 254.69547,530.5471 263.62299,526.96306 L 263.62299,525.39911 Q 254.69547,521.81506 249.6778,515.6896 244.66016,509.49898 244.66016,500.44114 L 244.66016,489.03736 Q 244.66016,479.91436 240.61995,475.809 236.64491,471.70363 227.78255,471.70363 L 220.35382,471.70363 220.35382,462.71095 230.12849,462.71095 Q 241.79291,462.71095 249.02616,469.22738 256.32457,475.67868 256.32457,487.92957 L 256.32457,497.63908 Q 256.32457,508.65186 261.73321,514.90765 267.14187,521.09827 278.28498,521.09827 L 281.60837,521.09827 281.60837,531.2639 Z" />
  </g>
</svg>
