<?xml version="1.0" encoding="UTF-8" standalone="no"?>
<!-- Created with Inkscape (http://www.inkscape.org/) -->

<svg
   xmlns:dc="http://purl.org/dc/elements/1.1/"
   xmlns:cc="http://creativecommons.org/ns#"
   xmlns:rdf="http://www.w3.org/1999/02/22-rdf-syntax-ns#"
   xmlns:svg="http://www.w3.org/2000/svg"
   xmlns="http://www.w3.org/2000/svg"
   xmlns:sodipodi="http://sodipodi.sourceforge.net/DTD/sodipodi-0.dtd"
   xmlns:inkscape="http://www.inkscape.org/namespaces/inkscape"
   width="169.62457mm"
   height="79.463982mm"
   viewBox="0 0 601.03197 281.56529"
   id="svg2"
   version="1.1"
   inkscape:version="0.91 r13725"
   sodipodi:docname="drawing.svg"
   inkscape:export-filename="C:\Users\saula\Desktop\path4155.png"
   inkscape:export-xdpi="245.39"
   inkscape:export-ydpi="245.39">
  <defs
     id="defs4" />
  <sodipodi:namedview
     id="base"
     pagecolor="#ffffff"
     bordercolor="#666666"
     borderopacity="1.0"
     inkscape:pageopacity="0.0"
     inkscape:pageshadow="2"
     inkscape:zoom="0.7"
     inkscape:cx="274.09547"
     inkscape:cy="163.32528"
     inkscape:document-units="px"
     inkscape:current-layer="layer1"
     showgrid="false"
     fit-margin-top="0"
     fit-margin-left="0"
     fit-margin-right="0"
     fit-margin-bottom="0"
     inkscape:window-width="1366"
     inkscape:window-height="705"
     inkscape:window-x="-8"
     inkscape:window-y="-8"
     inkscape:window-maximized="1" />
  <metadata
     id="metadata7">
    <rdf:RDF>
      <cc:Work
         rdf:about="">
        <dc:format>image/svg+xml</dc:format>
        <dc:type
           rdf:resource="http://purl.org/dc/dcmitype/StillImage" />
        <dc:title></dc:title>
      </cc:Work>
    </rdf:RDF>
  </metadata>
  <g
     inkscape:label="Layer 1"
     inkscape:groupmode="layer"
     id="layer1"
     transform="translate(19.423601,-385.39844)">
    <g
       style="font-style:normal;font-weight:normal;font-size:40px;line-height:125%;font-family:sans-serif;letter-spacing:0px;word-spacing:0px;fill:#164450;fill-opacity:1;stroke:none;stroke-width:1px;stroke-linecap:butt;stroke-linejoin:miter;stroke-opacity:1"
       id="text4135"
       transform="matrix(9.3429314,0,0,9.3429314,350.53348,-3876.6303)">
      <path
         d="M -15.476444,483.67682 Q -16.550663,484.14557 -17.429569,484.55573 -18.288944,484.96588 -19.695194,485.4151 -20.8866,485.78619 -22.29285,486.0401 -23.679569,486.31354 -25.359257,486.31354 -28.523319,486.31354 -31.120975,485.43463 -33.6991,484.53619 -35.613163,482.64166 -37.488163,480.78619 -38.54285,477.93463 -39.597538,475.06354 -39.597538,471.27448 -39.597538,467.68073 -38.581913,464.84869 -37.566288,462.01666 -35.652225,460.06354 -33.796757,458.16901 -31.179569,457.17291 -28.54285,456.17682 -25.339725,456.17682 -22.995975,456.17682 -20.671757,456.74323 -18.328007,457.30963 -15.476444,458.73541 L -15.476444,463.32526 -15.769413,463.32526 Q -18.171757,461.31354 -20.535038,460.39557 -22.898319,459.4776 -25.593632,459.4776 -27.800663,459.4776 -29.578007,460.20026 -31.335819,460.90338 -32.722538,462.40729 -34.070194,463.87213 -34.831913,466.11823 -35.5741,468.34479 -35.5741,471.27448 -35.5741,474.34088 -34.753788,476.54791 -33.913944,478.75494 -32.60535,480.14166 -31.238163,481.58698 -29.421757,482.2901 -27.585819,482.97369 -25.554569,482.97369 -22.7616,482.97369 -20.320194,482.01666 -17.878788,481.05963 -15.749882,479.14557 L -15.476444,479.14557 -15.476444,483.67682 Z"
         id="path4140"
         inkscape:connector-curvature="0"
         style="fill:#164450;fill-opacity:1" />
    </g>
    <path
       style="font-style:normal;font-weight:normal;font-size:medium;line-height:125%;font-family:sans-serif;letter-spacing:0px;word-spacing:0px;fill:#2c5aa0;fill-opacity:1;stroke:none;stroke-width:1px;stroke-linecap:butt;stroke-linejoin:miter;stroke-opacity:1"
       inkscape:connector-curvature="0"
       id="path4147"
       d="M 135.98232,589.65119 126.20768,589.65119 Q 114.54323,589.65119 107.24482,583.13476 100.01156,576.68346 100.01156,564.43257 L 100.01156,554.72306 Q 100.01156,543.71028 94.602929,537.51965 89.194289,531.26387 78.051158,531.26387 L 74.727788,531.26387 74.727788,521.09824 78.051158,521.09824 Q 89.194289,521.09824 94.602929,514.90762 100.01156,508.65183 100.01156,497.63905 L 100.01156,487.92954 Q 100.01156,475.67865 107.24482,469.22735 114.54323,462.71092 126.20768,462.71092 L 135.98232,462.71092 135.98232,471.7036 128.55358,471.7036 Q 119.69122,471.7036 115.65102,475.80897 111.67601,479.91433 111.67601,489.03733 L 111.67601,500.44111 Q 111.67601,509.49895 106.65834,515.68957 101.64067,521.81503 92.713149,525.39908 L 92.713149,526.96303 Q 101.64067,530.54707 106.65834,536.7377 111.67601,542.86313 111.67601,551.921 L 111.67601,563.32478 Q 111.67601,572.44778 115.65102,576.55314 119.69122,580.6585 128.55358,580.6585 L 135.98232,580.6585 135.98232,589.65119 Z" />
    <path
       style="font-style:normal;font-weight:normal;font-size:medium;line-height:125%;font-family:sans-serif;letter-spacing:0px;word-spacing:0px;fill:#0b1728;fill-opacity:1;stroke:none;stroke-width:1px;stroke-linecap:butt;stroke-linejoin:miter;stroke-opacity:1"
       inkscape:connector-curvature="0"
       id="path4149"
       d="M 581.60837,531.2639 578.28498,531.2639 Q 567.14187,531.2639 561.73321,537.51968 556.32457,543.71031 556.32457,554.72309 L 556.32457,564.4326 Q 556.32457,576.68349 549.02616,583.13479 541.79291,589.65122 530.12849,589.65122 L 520.35382,589.65122 520.35382,580.65853 527.78255,580.65853 Q 536.64491,580.65853 540.61995,576.55317 544.66016,572.44781 544.66016,563.32481 L 544.66016,551.92103 Q 544.66016,542.86316 549.6778,536.73773 554.69547,530.5471 563.62299,526.96306 L 563.62299,525.39911 Q 554.69547,521.81506 549.6778,515.6896 544.66016,509.49898 544.66016,500.44114 L 544.66016,489.03736 Q 544.66016,479.91436 540.61995,475.809 536.64491,471.70363 527.78255,471.70363 L 520.35382,471.70363 520.35382,462.71095 530.12849,462.71095 Q 541.79291,462.71095 549.02616,469.22738 556.32457,475.67868 556.32457,487.92957 L 556.32457,497.63908 Q 556.32457,508.65186 561.73321,514.90765 567.14187,521.09827 578.28498,521.09827 L 581.60837,521.09827 581.60837,531.2639 Z" />
    <g
       style="font-style:normal;font-weight:normal;font-size:40px;line-height:125%;font-family:sans-serif;letter-spacing:0px;word-spacing:0px;fill:#164450;fill-opacity:1;stroke:none;stroke-width:1px;stroke-linecap:butt;stroke-linejoin:miter;stroke-opacity:1"
       id="text4153"
       transform="matrix(1.8338095,0,0,1.8338095,-113.11144,-432.74556)">
      <path
         d="M 157.50624,523.45923 Q 157.50624,528.79126 154.77187,531.8772 152.03749,534.96313 147.44765,534.96313 142.81874,534.96313 140.08437,531.8772 137.36952,528.79126 137.36952,523.45923 137.36952,518.1272 140.08437,515.04126 142.81874,511.93579 147.44765,511.93579 152.03749,511.93579 154.77187,515.04126 157.50624,518.1272 157.50624,523.45923 Z M 153.71718,523.45923 Q 153.71718,519.22095 152.05702,517.17017 150.39687,515.09985 147.44765,515.09985 144.45937,515.09985 142.79921,517.17017 141.15858,519.22095 141.15858,523.45923 141.15858,527.56079 142.81874,529.6897 144.4789,531.79907 147.44765,531.79907 150.37733,531.79907 152.03749,529.70923 153.71718,527.59985 153.71718,523.45923 Z"
         id="path4158"
         inkscape:connector-curvature="0"
         style="fill:#164450;fill-opacity:1" />
      <path
         d="M 180.90468,531.8772 Q 180.90468,537.42407 178.38515,540.02173 175.86562,542.61938 170.63124,542.61938 168.89296,542.61938 167.2328,542.36548 165.59218,542.1311 163.99062,541.68188 L 163.99062,537.93188 164.18593,537.93188 Q 165.08437,538.28345 167.03749,538.79126 168.99062,539.3186 170.94374,539.3186 172.81874,539.3186 174.04921,538.86938 175.27968,538.42017 175.96327,537.61938 176.64687,536.85767 176.93983,535.78345 177.2328,534.70923 177.2328,533.3811 L 177.2328,531.38892 Q 175.57265,532.71704 174.04921,533.3811 172.5453,534.02563 170.20155,534.02563 166.2953,534.02563 163.99062,531.21313 161.70546,528.3811 161.70546,523.24438 161.70546,520.43188 162.48671,518.40063 163.28749,516.34985 164.65468,514.86548 165.92421,513.47876 167.74062,512.71704 169.55702,511.93579 171.3539,511.93579 173.24843,511.93579 174.51796,512.32642 175.80702,512.69751 177.2328,513.47876 L 177.46718,512.54126 180.90468,512.54126 180.90468,531.8772 Z M 177.2328,528.36157 177.2328,516.46704 Q 175.76796,515.80298 174.49843,515.52954 173.24843,515.23657 171.99843,515.23657 168.97108,515.23657 167.2328,517.26782 165.49452,519.29907 165.49452,523.16626 165.49452,526.83813 166.78358,528.73267 168.07265,530.6272 171.06093,530.6272 172.66249,530.6272 174.26405,530.02173 175.88515,529.39673 177.2328,528.36157 Z"
         id="path4160"
         inkscape:connector-curvature="0"
         style="fill:#164450;fill-opacity:1" />
      <path
         d="M 206.37343,534.35767 202.70155,534.35767 202.70155,521.93579 Q 202.70155,520.43188 202.52577,519.12329 202.34999,517.79517 201.88124,517.05298 201.39296,516.23267 200.47499,515.84204 199.55702,515.43188 198.09218,515.43188 196.58827,515.43188 194.94765,516.17407 193.30702,516.91626 191.80312,518.0686 L 191.80312,534.35767 188.13124,534.35767 188.13124,512.54126 191.80312,512.54126 191.80312,514.96313 Q 193.52187,513.53735 195.3578,512.73657 197.19374,511.93579 199.12733,511.93579 202.66249,511.93579 204.51796,514.0647 206.37343,516.1936 206.37343,520.19751 L 206.37343,534.35767 Z"
         id="path4162"
         inkscape:connector-curvature="0"
         style="fill:#164450;fill-opacity:1" />
      <path
         d="M 231.70546,523.83032 215.63124,523.83032 Q 215.63124,525.84204 216.23671,527.34595 216.84218,528.83032 217.89687,529.78735 218.91249,530.72485 220.29921,531.1936 221.70546,531.66235 223.38515,531.66235 225.61171,531.66235 227.8578,530.78345 230.12343,529.88501 231.08046,529.02563 L 231.27577,529.02563 231.27577,533.02954 Q 229.4203,533.81079 227.48671,534.33813 225.55312,534.86548 223.42421,534.86548 217.99452,534.86548 214.94765,531.93579 211.90077,528.98657 211.90077,523.57642 211.90077,518.22485 214.81093,515.08032 217.74062,511.93579 222.50624,511.93579 226.9203,511.93579 229.30312,514.51392 231.70546,517.09204 231.70546,521.83813 L 231.70546,523.83032 Z M 228.13124,521.01782 Q 228.11171,518.1272 226.6664,516.54517 225.24062,514.96313 222.31093,514.96313 219.36171,514.96313 217.6039,516.70142 215.86562,518.4397 215.63124,521.01782 L 228.13124,521.01782 Z"
         id="path4164"
         inkscape:connector-curvature="0"
         style="fill:#164450;fill-opacity:1" />
      <path
         d="M 252.8578,528.0686 Q 252.8578,531.05688 250.37733,532.97095 247.9164,534.88501 243.63905,534.88501 241.21718,534.88501 239.18593,534.3186 237.17421,533.73267 235.80702,533.04907 L 235.80702,528.92798 236.00233,528.92798 Q 237.74062,530.23657 239.86952,531.01782 241.99843,531.77954 243.95155,531.77954 246.37343,531.77954 247.74062,530.99829 249.1078,530.21704 249.1078,528.53735 249.1078,527.24829 248.36562,526.58423 247.62343,525.92017 245.51405,525.45142 244.7328,525.27563 243.46327,525.04126 242.21327,524.80688 241.17812,524.53345 238.30702,523.77173 237.09608,522.30688 235.90468,520.82251 235.90468,518.67407 235.90468,517.32642 236.45155,516.13501 237.01796,514.9436 238.15077,514.0061 239.24452,513.08813 240.92421,512.56079 242.62343,512.01392 244.71327,512.01392 246.6664,512.01392 248.65858,512.5022 250.6703,512.97095 251.99843,513.65454 L 251.99843,517.58032 251.80312,517.58032 Q 250.39687,516.54517 248.38515,515.84204 246.37343,515.11938 244.43983,515.11938 242.42812,515.11938 241.0414,515.90063 239.65468,516.66235 239.65468,518.18579 239.65468,519.53345 240.49452,520.21704 241.31483,520.90063 243.15077,521.33032 244.1664,521.5647 245.4164,521.79907 246.68593,522.03345 247.52577,522.22876 250.08437,522.8147 251.47108,524.24048 252.8578,525.68579 252.8578,528.0686 Z"
         id="path4166"
         inkscape:connector-curvature="0"
         style="fill:#164450;fill-opacity:1" />
      <path
         d="M 276.39296,523.83032 260.31874,523.83032 Q 260.31874,525.84204 260.92421,527.34595 261.52968,528.83032 262.58437,529.78735 263.59999,530.72485 264.98671,531.1936 266.39296,531.66235 268.07265,531.66235 270.29921,531.66235 272.5453,530.78345 274.81093,529.88501 275.76796,529.02563 L 275.96327,529.02563 275.96327,533.02954 Q 274.1078,533.81079 272.17421,534.33813 270.24062,534.86548 268.11171,534.86548 262.68202,534.86548 259.63515,531.93579 256.58827,528.98657 256.58827,523.57642 256.58827,518.22485 259.49843,515.08032 262.42812,511.93579 267.19374,511.93579 271.6078,511.93579 273.99062,514.51392 276.39296,517.09204 276.39296,521.83813 L 276.39296,523.83032 Z M 272.81874,521.01782 Q 272.79921,518.1272 271.3539,516.54517 269.92812,514.96313 266.99843,514.96313 264.04921,514.96313 262.2914,516.70142 260.55312,518.4397 260.31874,521.01782 L 272.81874,521.01782 Z"
         id="path4168"
         inkscape:connector-curvature="0"
         style="fill:#164450;fill-opacity:1" />
      <path
         d="M 300.20155,534.35767 296.52968,534.35767 296.52968,521.93579 Q 296.52968,520.43188 296.3539,519.12329 296.17812,517.79517 295.70937,517.05298 295.22108,516.23267 294.30312,515.84204 293.38515,515.43188 291.9203,515.43188 290.4164,515.43188 288.77577,516.17407 287.13515,516.91626 285.63124,518.0686 L 285.63124,534.35767 281.95937,534.35767 281.95937,512.54126 285.63124,512.54126 285.63124,514.96313 Q 287.34999,513.53735 289.18593,512.73657 291.02187,511.93579 292.95546,511.93579 296.49062,511.93579 298.34608,514.0647 300.20155,516.1936 300.20155,520.19751 L 300.20155,534.35767 Z"
         id="path4170"
         inkscape:connector-curvature="0"
         style="fill:#164450;fill-opacity:1" />
      <path
         d="M 323.40468,532.99048 Q 321.56874,533.86938 319.90858,534.35767 318.26796,534.84595 316.41249,534.84595 314.04921,534.84595 312.07655,534.16235 310.1039,533.45923 308.69765,532.05298 307.27187,530.64673 306.49062,528.49829 305.70937,526.34985 305.70937,523.47876 305.70937,518.1272 308.63905,515.08032 311.58827,512.03345 316.41249,512.03345 318.28749,512.03345 320.08437,512.56079 321.90077,513.08813 323.40468,513.84985 L 323.40468,517.93188 323.20937,517.93188 Q 321.52968,516.62329 319.7328,515.92017 317.95546,515.21704 316.25624,515.21704 313.13124,515.21704 311.31483,517.32642 309.51796,519.41626 309.51796,523.47876 309.51796,527.42407 311.27577,529.55298 313.05312,531.66235 316.25624,531.66235 317.36952,531.66235 318.52187,531.36938 319.67421,531.07642 320.59218,530.60767 321.39296,530.19751 322.09608,529.74829 322.79921,529.27954 323.20937,528.94751 L 323.40468,528.94751 323.40468,532.99048 Z"
         id="path4172"
         inkscape:connector-curvature="0"
         style="fill:#164450;fill-opacity:1" />
      <path
         d="M 346.39296,523.83032 330.31874,523.83032 Q 330.31874,525.84204 330.92421,527.34595 331.52968,528.83032 332.58437,529.78735 333.59999,530.72485 334.98671,531.1936 336.39296,531.66235 338.07265,531.66235 340.29921,531.66235 342.5453,530.78345 344.81093,529.88501 345.76796,529.02563 L 345.96327,529.02563 345.96327,533.02954 Q 344.1078,533.81079 342.17421,534.33813 340.24062,534.86548 338.11171,534.86548 332.68202,534.86548 329.63515,531.93579 326.58827,528.98657 326.58827,523.57642 326.58827,518.22485 329.49843,515.08032 332.42812,511.93579 337.19374,511.93579 341.6078,511.93579 343.99062,514.51392 346.39296,517.09204 346.39296,521.83813 L 346.39296,523.83032 Z M 342.81874,521.01782 Q 342.79921,518.1272 341.3539,516.54517 339.92812,514.96313 336.99843,514.96313 334.04921,514.96313 332.2914,516.70142 330.55312,518.4397 330.31874,521.01782 L 342.81874,521.01782 Z"
         id="path4174"
         inkscape:connector-curvature="0"
         style="fill:#164450;fill-opacity:1" />
    </g>
  </g>
</svg>
